<svg id="e4858aa4-ea95-466d-85aa-87dda08427a0" data-name="Calque 1" xmlns="http://www.w3.org/2000/svg" width="23.47" height="24" viewBox="0 0 23.47 24"><path d="M256.11,244h-.17a10.49,10.49,0,0,0-6.32,2.57l-.3.25-.3-.26a5.3,5.3,0,0,1-1.31-2.23,16.4,16.4,0,0,0-.47,5.84,16.69,16.69,0,0,0,3.76-.4c.91-.18,1.84-.41,2.71-.67a10.77,10.77,0,0,1-2-.61l-.82-.35.76-.47c2.37-1.45,4.14-2.07,6.14-1.81a19,19,0,0,1,6.07,2.41,10,10,0,0,0-5.34-3.93A8.7,8.7,0,0,0,256.11,244Zm4.48,4.86c-2.38,0-2.38,0-2.38,2.38v9.53c0,.48,0,.87,0,1.18.86-.24,1.72-.45,2.59-.62a19.51,19.51,0,0,1,3.46-.43,8.79,8.79,0,0,1,.92,0l.32.05.07.31a9.1,9.1,0,0,1,.2,1.84c1.94,0,1.95-.15,1.95-2.38v-9.52c0-2.38,0-2.38-2.39-2.38q.11.18.21.39l.64,1.3-1.27-.7-1.86-1Zm-14.38,0c-1.94,0-2,.15-2,2.38v9.53c0,2.37,0,2.37,2.39,2.37l-.21-.39-.64-1.3,1.27.7,1.86,1h2.48c2.38,0,2.38,0,2.38-2.38v-9.52c0-.49,0-.88,0-1.19-.86.24-1.72.45-2.59.62a14.92,14.92,0,0,1-4.38.38l-.32,0-.07-.31A9.1,9.1,0,0,1,246.21,248.86Zm18.09,13a18.58,18.58,0,0,0-3.3.41c-.91.18-1.84.41-2.71.67a10.77,10.77,0,0,1,1.95.61l.82.35-.76.47c-2.37,1.44-4.14,2.07-6.14,1.81a19,19,0,0,1-6.07-2.41,10,10,0,0,0,5.34,3.93c2.68.77,5.81.32,8.95-2.24l.3-.25.3.27a5.3,5.3,0,0,1,1.31,2.23,16.4,16.4,0,0,0,.47-5.84Z" transform="translate(-244.26 -244)"/></svg>