<svg id="f0a20cc0-4e75-4214-9d5c-451c41f870b2" data-name="Calque 1" xmlns="http://www.w3.org/2000/svg" width="22.98" height="24" viewBox="0 0 22.98 24"><path d="M267.25,259l-2.06-1.19a9.2,9.2,0,0,0,0-3.39l2.06-1.19a.58.58,0,0,0,.26-.68,12.07,12.07,0,0,0-2.64-4.58.58.58,0,0,0-.72-.11L262.09,249a9.3,9.3,0,0,0-2.94-1.7V245a.59.59,0,0,0-.46-.57,12.06,12.06,0,0,0-5.28,0,.59.59,0,0,0-.46.57v2.38A9.41,9.41,0,0,0,250,249l-2-1.19a.56.56,0,0,0-.72.11,12.1,12.1,0,0,0-2.65,4.57.58.58,0,0,0,.27.68l2.06,1.19a9.25,9.25,0,0,0,0,3.4L244.86,259a.59.59,0,0,0-.27.68,12.1,12.1,0,0,0,2.65,4.57.58.58,0,0,0,.72.11l2.06-1.19a8.84,8.84,0,0,0,2.94,1.7v2.38a.59.59,0,0,0,.45.57,12.1,12.1,0,0,0,5.29,0,.59.59,0,0,0,.45-.57v-2.38a9.46,9.46,0,0,0,3-1.7l2.06,1.19a.55.55,0,0,0,.71-.11,12,12,0,0,0,2.65-4.57A.61.61,0,0,0,267.25,259Zm-11.2,1a3.88,3.88,0,1,1,3.87-3.87A3.88,3.88,0,0,1,256.05,260Z" transform="translate(-244.57 -244.1)"/></svg>